<?xml version="1.0" encoding="iso-8859-1"?>
<!-- Generator: Adobe Illustrator 19.0.0, SVG Export Plug-In . SVG Version: 6.00 Build 0)  -->
<svg version="1.1" id="Capa_1" xmlns="http://www.w3.org/2000/svg" xmlns:xlink="http://www.w3.org/1999/xlink" x="0px" y="0px"
	 viewBox="0 0 512 512" style="enable-background:new 0 0 512 512;" xml:space="preserve">
<g>
	<g>
		<path d="M510.339,271.693c-62.155-77.853-154.857-122.505-254.338-122.505S63.816,193.84,1.662,271.693
			c-2.215,2.775-2.215,6.714,0,9.488C63.816,359.035,156.52,403.687,256,403.687c37.769,0,74.78-6.42,110.006-19.079
			c3.952-1.42,6.005-5.776,4.584-9.728c-1.419-3.952-5.774-6.003-9.728-4.584c-9.928,3.569-20.009,6.602-30.211,9.126
			c31.848-23.151,52.598-60.687,52.598-102.984c0-41.995-20.454-79.298-51.918-102.487c-0.176-0.155-0.344-0.319-0.536-0.459
			c-0.028-0.021-0.061-0.034-0.089-0.055c63.643,15.69,120.968,51.316,163.884,102.999c-27.847,33.484-62.952,61.191-101.871,80.345
			c-3.768,1.854-5.319,6.413-3.464,10.18c1.855,3.768,6.41,5.322,10.181,3.464c42.734-21.035,81.085-51.894,110.903-89.244
			C512.553,278.407,512.553,274.468,510.339,271.693z M256,164.397c20.772,0,40.236,5.689,56.931,15.579L256,221.339l-56.931-41.363
			C215.764,170.085,235.228,164.397,256,164.397z M295.465,250.013l-26.53-19.275l42.926-31.187L295.465,250.013z M303.461,274.619
			l42.925,31.187h-53.058L303.461,274.619z M216.534,250.013l-16.396-50.463l42.926,31.187L216.534,250.013z M218.673,305.807
			h-53.059l42.926-31.187L218.673,305.807z M256,240.137l34.525,25.084l-13.187,40.586h-42.674l-13.187-40.586L256,240.137z
			 M203.598,259.412l-56.964,41.387c-1.747-7.847-2.676-15.998-2.676-24.361c0-33.374,14.674-63.382,37.902-83.925L203.598,259.412z
			 M17.41,276.438c42.916-51.685,100.24-87.312,163.885-103.001c-0.028,0.02-0.06,0.033-0.088,0.054
			c-0.194,0.141-0.361,0.305-0.538,0.46c-31.463,23.189-51.916,60.491-51.916,102.486c0,42.326,20.777,79.884,52.661,103.031
			C117.721,363.793,60.352,328.154,17.41,276.438z M153.218,321.015h70.395l21.755,66.957
			C204.015,384.062,169.138,357.582,153.218,321.015z M239.604,321.015h32.792L256,371.476L239.604,321.015z M266.631,387.972
			l21.756-66.957h70.394C342.861,357.582,307.985,384.062,266.631,387.972z M368.042,276.438c0,8.364-0.929,16.515-2.675,24.36
			l-56.965-41.387l21.737-66.9C353.368,213.056,368.042,243.063,368.042,276.438z"/>
	</g>
</g>
<g>
	<g>
		<path d="M122.745,145.041c-1.855-3.768-6.413-5.321-10.18-3.464C69.83,162.61,31.48,193.47,1.662,230.819
			c-2.62,3.282-2.083,8.066,1.198,10.687c1.401,1.118,3.076,1.662,4.739,1.662c2.234,0,4.446-0.979,5.947-2.86
			c28.431-35.612,64.994-65.035,105.735-85.087C123.048,153.367,124.599,148.808,122.745,145.041z"/>
	</g>
</g>
<g>
	<g>
		<path d="M510.339,230.818c-62.155-77.853-154.857-122.505-254.338-122.505c-37.769,0-74.781,6.419-110.006,19.079
			c-3.952,1.42-6.004,5.776-4.584,9.728c1.419,3.952,5.774,6.006,9.726,4.585c33.57-12.065,68.851-18.183,104.863-18.183
			c94.829,0,183.201,42.567,242.454,116.785c1.502,1.881,3.714,2.86,5.947,2.86c1.664,0,3.339-0.543,4.74-1.662
			C512.422,238.886,512.959,234.1,510.339,230.818z"/>
	</g>
</g>
<g>
</g>
<g>
</g>
<g>
</g>
<g>
</g>
<g>
</g>
<g>
</g>
<g>
</g>
<g>
</g>
<g>
</g>
<g>
</g>
<g>
</g>
<g>
</g>
<g>
</g>
<g>
</g>
<g>
</g>
</svg>
