<?xml version="1.0" encoding="iso-8859-1"?>
<!-- Generator: Adobe Illustrator 19.0.0, SVG Export Plug-In . SVG Version: 6.00 Build 0)  -->
<svg version="1.1" id="Capa_1" xmlns="http://www.w3.org/2000/svg" xmlns:xlink="http://www.w3.org/1999/xlink" x="0px" y="0px"
	 viewBox="0 0 512 512" style="enable-background:new 0 0 512 512;" xml:space="preserve">
<path style="fill:#EDE6F5;" d="M504.4,276.437c-58.216,72.917-147.841,119.646-248.396,119.646
	c-30.061,0-59.149-4.177-86.716-11.984c-64.624-18.3-120.873-56.543-161.68-107.662c21.169-26.533,46.516-49.588,75.026-68.192
	c49.852-32.545,109.396-51.453,173.37-51.453C356.558,156.791,446.184,203.52,504.4,276.437z"/>
<path style="fill:#E7E2ED;" d="M504.4,276.437c-58.216,72.917-147.841,119.646-248.396,119.646
	c-30.061,0-59.149-4.177-86.716-11.984c-46.587-46.131-78.138-107.419-86.655-175.854c49.852-32.545,109.396-51.453,173.37-51.453
	C356.558,156.791,446.184,203.52,504.4,276.437z"/>
<path style="fill:#ED4596;" d="M375.65,276.437c0,26.462-8.587,50.906-23.136,70.717c-21.768,29.676-56.888,48.929-96.509,48.929
	c-66.083,0-119.646-53.562-119.646-119.646c0-66.073,53.562-119.646,119.646-119.646c39.612,0,74.732,19.253,96.489,48.919
	C367.062,225.521,375.65,249.975,375.65,276.437z"/>
<path style="fill:#F777CE;" d="M375.65,276.437c0,26.462-8.587,50.906-23.136,70.717c-12.024,6.975-25.985,10.96-40.879,10.96
	c-45.107,0-81.677-36.57-81.677-81.677s36.57-81.667,81.677-81.667c14.883,0,28.844,3.984,40.859,10.94
	C367.062,225.521,375.65,249.975,375.65,276.437z"/>
<path d="M510.339,271.693c-62.155-77.853-154.857-122.505-254.338-122.505S63.816,193.84,1.662,271.693
	c-2.215,2.775-2.215,6.714,0,9.488C63.816,359.035,156.52,403.687,256,403.687c37.769,0,74.78-6.42,110.006-19.079
	c3.952-1.42,6.005-5.776,4.584-9.728c-1.419-3.952-5.774-6.003-9.728-4.584c-9.928,3.569-20.009,6.602-30.211,9.126
	c31.848-23.151,52.598-60.687,52.598-102.984c0-41.995-20.454-79.298-51.918-102.487c-0.176-0.155-0.344-0.319-0.536-0.459
	c-0.028-0.021-0.061-0.034-0.089-0.055c63.643,15.689,120.968,51.316,163.884,102.999c-27.847,33.484-62.952,61.191-101.871,80.345
	c-3.768,1.854-5.319,6.413-3.464,10.18c1.855,3.767,6.41,5.322,10.181,3.464c42.734-21.035,81.085-51.895,110.903-89.244
	C512.553,278.407,512.553,274.468,510.339,271.693z M143.959,276.438c0-33.374,14.674-63.382,37.902-83.925l21.737,66.9
	l-56.964,41.387C144.888,292.952,143.959,284.802,143.959,276.438z M277.338,305.807h-42.674l-13.187-40.586L256,240.137
	l34.525,25.084L277.338,305.807z M208.539,274.619l10.134,31.187h-53.059L208.539,274.619z M216.534,250.013l-16.396-50.463
	l42.926,31.187L216.534,250.013z M223.613,321.015l21.755,66.957c-41.353-3.91-76.23-30.391-92.151-66.957H223.613z
	 M239.604,321.015h32.792L256,371.477L239.604,321.015z M303.461,274.619l42.925,31.187h-53.058L303.461,274.619z M295.465,250.013
	l-26.53-19.275l42.926-31.187L295.465,250.013z M256,221.339l-56.931-41.363c16.695-9.891,36.159-15.579,56.931-15.579
	s40.236,5.689,56.931,15.579L256,221.339z M17.41,276.438c42.916-51.685,100.24-87.312,163.885-103.001
	c-0.028,0.02-0.06,0.033-0.088,0.054c-0.194,0.141-0.361,0.305-0.538,0.46c-31.463,23.189-51.916,60.491-51.916,102.486
	c0,42.326,20.777,79.884,52.661,103.031C117.721,363.793,60.352,328.154,17.41,276.438z M266.631,387.972l21.756-66.957h70.394
	C342.861,357.582,307.985,384.062,266.631,387.972z M368.042,276.438c0,8.364-0.929,16.515-2.675,24.36l-56.965-41.387l21.737-66.9
	C353.368,213.056,368.042,243.063,368.042,276.438z"/>
<path d="M2.86,241.507c1.401,1.118,3.076,1.662,4.739,1.662c2.234,0,4.446-0.979,5.947-2.86
	c28.431-35.612,64.994-65.035,105.735-85.087c3.768-1.854,5.319-6.413,3.464-10.18c-1.855-3.768-6.413-5.321-10.18-3.464
	C69.83,162.61,31.48,193.47,1.662,230.819C-0.958,234.101-0.422,238.886,2.86,241.507z"/>
<path d="M151.137,141.705c33.57-12.065,68.851-18.183,104.863-18.183c94.829,0,183.201,42.567,242.454,116.785
	c1.502,1.881,3.714,2.86,5.947,2.86c1.664,0,3.339-0.543,4.74-1.662c3.281-2.62,3.818-7.405,1.198-10.687
	c-62.155-77.853-154.857-122.505-254.338-122.505c-37.769,0-74.781,6.419-110.006,19.079c-3.952,1.42-6.004,5.776-4.584,9.728
	C142.831,141.072,147.185,143.127,151.137,141.705z"/>
<g>
</g>
<g>
</g>
<g>
</g>
<g>
</g>
<g>
</g>
<g>
</g>
<g>
</g>
<g>
</g>
<g>
</g>
<g>
</g>
<g>
</g>
<g>
</g>
<g>
</g>
<g>
</g>
<g>
</g>
</svg>
